<svg id="Layer_1" data-name="Layer 1" xmlns="http://www.w3.org/2000/svg" viewBox="0 0 2153 1977"><defs><style>.cls-1{fill:#fff;}</style></defs><path class="cls-1" d="M4333-199.74a1.87,1.87,0,0,0,0,.21c0,2.28-.06,4.57-.13,6.86v.13c-.12,4.7-.31,9.41-.57,14-.07,2.16-.21,4.24-.29,6.33,0,.61-.07,1.28-.13,1.95,0,1.35-.11,2.76-.26,4.17s-.13,2.75-.22,4.11c-.09,1.14-.13,2.21-.23,3.3-.05.81-.15,1.61-.2,2.29-.14,2.15-.35,4.3-.47,6.46s-.4,4.59-.59,6.87a1.58,1.58,0,0,0-.06.53c-.2,1.91-.36,3.71-.56,5.6-.27,2.23-.47,4.45-.66,6.75-.22,1.68-.37,3.43-.6,5.18s-.42,3.58-.62,5.32c-.21,2-.49,4-.77,5.94-.33,2.43-.59,4.85-.92,7.29-.26,2.16-.6,4.32-.94,6.4-.05.62-.17,1.22-.21,1.83-.27,2.17-.61,4.32-.94,6.48l-.07.2c-7.08,20.37-22.84,32.63-44.95,38.34-102.57,26.67-198,13.85-276.57-62.66-44.32-43.11-93.86-86.92-85.75-157.84,3.64-31.82,17.07-62.53,24.18-86.74v-.07c-.09-.34-.1-.74-.18-1.12-21.65-3-51.91.31-72.52-12.29a274.56,274.56,0,0,1-80-74.3C3749.13-502.8,3707.32-551,3650.39-589.1c-33.07-22.22-59-61.4-77.06-98.25s-11.32-66,13.1-84.39a6.28,6.28,0,0,0,.16,1c1.27,3.92,2.67,7.83,4.2,11.56,28,69.27,94.58,102,175.09,111.53a490.08,490.08,0,0,0,72.91,2.87l8.71-.28c2.83,0,5.64-.1,8.47-.12s5.56-.11,8.39-.13c.47,0,.94,0,1.4,0,3,0,5.92,0,8.89-.08,2.75,0,5.56,0,8.39.08a5.27,5.27,0,0,1,1.14,0c2.68,0,5.44,0,8.21.08.47,0,.87,0,1.34,0,2.55.06,5.17.11,7.8.23.46,0,1,0,1.47,0,3,.12,5.91.17,8.88.34l8.07.35c1.21.1,2.36.12,3.58.22,2.34.08,4.7.28,7,.33,5,.39,10.23.69,15.35,1.14,1.2,0,2.49.19,3.69.29,2,.13,4,.35,5.94.56,2.35.18,4.64.4,7,.58,1.09.18,2.16.26,3.24.38l5.93.62c1.89.2,3.92.47,5.86.7,1,.13,2,.24,3,.38l1.74.32c45.47,8.32,86.75,15.21,180.6,52.55,1.64.82,3.21,1.65,4.71,2.47l6.35,3.42c1,.52,1.92,1.17,2.88,1.67s2.05,1.21,3.07,1.79a.62.62,0,0,1,.28.19c1.17.69,2.38,1.4,3.55,2.16.14,0,.22.08.35.13a1.17,1.17,0,0,0,.26.2,122.78,122.78,0,0,1,23,18.69,4.41,4.41,0,0,1,.77.72c.76.72,1.46,1.51,2.22,2.29,11,11.48,22.15,25.44,22.15,25.44.76.92,1.54,2,2.38,3,.28.42.54.74.83,1.12.15.14.29.34.42.47q2.94,3.72,6.31,8.33l.85,1.16c.07.1.14.19.2.29.41.52.85,1.11,1.26,1.7,1.68,2.23,3.31,4.53,4.92,6.9.84,1.19,1.75,2.44,2.53,3.69.21.3.37.55.57.83.05.1.14.18.2.28,3.24,4.74,6.62,9.95,10,15.56.09.12.16.24.26.35.2.33.41.66.61,1,.1.16.18.33.27.48.34.53.57,1,.84,1.45s.56.86.79,1.32c.56.85,1.13,1.79,1.69,2.77,1.35,2.24,2.7,4.56,4,6.87,3.35,6,9.76,17.62,16.75,33,.29.67.64,1.33.93,2.05.73,1.59,1.74,3.91,3,6.83.43,1,.87,2.06,1.37,3.19s.95,2.24,1.45,3.51.95,2.39,1.53,3.65c1.1,2.78,2.27,5.83,3.51,9.08,0,0,8.34,22.18,14.57,45.52.31,1.19.61,2.31.92,3.53s.61,2.39,1,3.59c.07.53.24,1.07.31,1.54.39,1.39.7,2.73,1,4.06.22.81.38,1.53.53,2.26.31,1.27.63,2.54.86,3.81.39,1.53.77,3.06,1,4.61s.7,3.13,1,4.66.64,3.08,1,4.68.63,3.14.87,4.67c.18,1.07.41,2.14.64,3.15.1.53.17,1.06.24,1.59.27,1.55.58,3.15.83,4.68.82,4.76,1.58,9.56,2.25,14.3.35,2.43.68,4.76,1,7.1s.62,4.75.89,7.15.55,4.5.76,6.78c.09.8.16,1.53.19,2.33a40.39,40.39,0,0,1,.47,4.16c.1.87.19,1.81.21,2.68.2,1.67.39,3.42.5,5.09a12.28,12.28,0,0,0,.11,1.48c.19,1.8.33,3.75.45,5.56l0,1.48c.21,2.13.34,4.29.47,6.44v.06c.14,2.15.26,4.28.33,6.44l0,.73a2.91,2.91,0,0,1,.1.87l.63,20.4c0,1.15,0,2.29,0,3.44,0,1.66,0,3.42-.05,5.11l0,1c0,2.11,0,4.19,0,6.26l0,1.08C4333.07-203.84,4333.07-201.75,4333-199.74ZM3789.77-628.88a12.9,12.9,0,0,1,9,3.29,11.88,11.88,0,0,1,3.88,8.46,12.21,12.21,0,0,1,2.39-7.52c.33-.34.65-.76,1-1.1a12.45,12.45,0,0,1,7-3.71,14.71,14.71,0,0,1,1.61-.19,12.57,12.57,0,0,1-1.76-.07,12.63,12.63,0,0,1-7-3.21,11.89,11.89,0,0,1-3.95-8.48,12.09,12.09,0,0,1-1.68,6.57c-.33.41-.59.82-.91,1.17a5.23,5.23,0,0,1-.77,1A12.62,12.62,0,0,1,3789.77-628.88Zm-56.87,25.07a23,23,0,0,1,13-6.85,19.94,19.94,0,0,1,2.87-.29V-611a22.12,22.12,0,0,1-3.15-.11,23.32,23.32,0,0,1-13-5.91,22.55,22.55,0,0,1-7.19-15.68,21.88,21.88,0,0,1-3.26,12.11,13.37,13.37,0,0,1-1.53,2.26c-.46.62-1,1.17-1.44,1.73a23.49,23.49,0,0,1-16.1,7,23.31,23.31,0,0,1,16.51,6.14,22,22,0,0,1,7.21,15.63,21.93,21.93,0,0,1,4.41-13.85A13.71,13.71,0,0,1,3732.9-603.81Zm90.22,23.75a44.59,44.59,0,0,1-6.06-.29,44.37,44.37,0,0,1-24.87-11.33,42.16,42.16,0,0,1-13.89-30,41.92,41.92,0,0,1-6.21,23.24,48.91,48.91,0,0,1-3,4.39c-.83,1.09-1.82,2.13-2.79,3.17a44.59,44.59,0,0,1-30.83,13.58,44.21,44.21,0,0,1,31.6,11.66A42.17,42.17,0,0,1,3781-535.71a42.07,42.07,0,0,1,8.39-26.51c1.1-1.45,2.19-2.76,3.38-4.08a44.58,44.58,0,0,1,24.84-13.12,37.68,37.68,0,0,1,5.56-.58Zm90.19,130.3a20.14,20.14,0,0,0-5.95-12.09,20.92,20.92,0,0,0-12.12-5.81v9.15a8.77,8.77,0,0,1,8.75,8.75Zm0-36.1H3904a8.77,8.77,0,0,1-8.75,8.75V-468a21,21,0,0,0,12.12-5.81c.47-.47.93-1,1.37-1.46a22.81,22.81,0,0,0,1.47-2A19.89,19.89,0,0,0,3913.31-485.86Zm18,18.24h0a20.89,20.89,0,0,0-11.86,5.86,18.24,18.24,0,0,0-1.65,1.87,20,20,0,0,0-4.21,10.12h9a8.77,8.77,0,0,1,8.75-8.75Zm0-9.49a8.77,8.77,0,0,1-8.75-8.75h-9a20.2,20.2,0,0,0,6,12.08,20.93,20.93,0,0,0,11.53,5.73l.27,0Zm246.11,37.3a20.17,20.17,0,0,0,6,12.08,20.87,20.87,0,0,0,11.53,5.73l.27,0v-9.1a8.77,8.77,0,0,1-8.75-8.75Zm0,36.1h9a8.77,8.77,0,0,1,8.75-8.75v-9.11h0a20.89,20.89,0,0,0-11.86,5.86,18.24,18.24,0,0,0-1.65,1.87A20,20,0,0,0,4177.43-403.71Zm-18.33-18.21a20.92,20.92,0,0,0,12.12-5.81c.47-.46.93-.95,1.37-1.46a22.81,22.81,0,0,0,1.47-2,19.89,19.89,0,0,0,3.11-8.59h-9.32a8.77,8.77,0,0,1-8.75,8.75Zm0,9.46a8.77,8.77,0,0,1,8.75,8.75h9.32a20.17,20.17,0,0,0-5.95-12.09,20.92,20.92,0,0,0-12.12-5.81ZM4058.87-543.11c0,.32.08.65.13,1a30.78,30.78,0,0,0,4.68,12.36,30.53,30.53,0,0,0,2.31,3.14c.41.48.83.94,1.27,1.4.11.09.22.2.32.3.39.37.76.76,1.13,1.16a32.42,32.42,0,0,0,14.53,7.77,31.25,31.25,0,0,0,3.67.65v-14.17a13.62,13.62,0,0,1-13.58-13.58Zm0,56h14.46a13.62,13.62,0,0,1,13.58-13.58v-14.19a31.91,31.91,0,0,0-4.73.93,32.21,32.21,0,0,0-7.67,3.2,32.5,32.5,0,0,0-6.41,4.88,33.38,33.38,0,0,0-3.31,3.8A30.87,30.87,0,0,0,4058.87-487.1Zm-28-28.32.42-.05a32.53,32.53,0,0,0,13.27-5.15,31.46,31.46,0,0,0,4.61-3.75,31.71,31.71,0,0,0,5.63-7.44,30.31,30.31,0,0,0,3.45-10.17,8.31,8.31,0,0,0,.16-1.13h-14a13.62,13.62,0,0,1-13.58,13.58Zm0,14.74a13.62,13.62,0,0,1,13.58,13.58h14a31.05,31.05,0,0,0-6.53-15.71,30.4,30.4,0,0,0-2.56-2.89,32.5,32.5,0,0,0-18.42-9.11h0Zm-16.42,302.33,10.35-.16a31.11,31.11,0,0,0-6.5-15.55c-.31-.39-.64-.78-1-1.15-.51-.6-1-1.17-1.6-1.73a32.44,32.44,0,0,0-18.42-9.11h0v14.12a13.63,13.63,0,0,1,12.45,8.19,13.17,13.17,0,0,1,1.12,5.37v0h.51v0Zm-16.76-28.36a32.52,32.52,0,0,0,17.87-8.9,32.31,32.31,0,0,0,6.24-8.55,31,31,0,0,0,3-10.2h-14a13.62,13.62,0,0,1-13.57,13.58v14.12Zm55.58.59a32.2,32.2,0,0,0-8.63,2.28,32.44,32.44,0,0,0-10.17,6.73,31.21,31.21,0,0,0-9.21,18.59,1,1,0,0,0,0,.17h14.46a13.63,13.63,0,0,1,13.58-13.58Zm0-14.66a13.49,13.49,0,0,1-9-3.41,13.49,13.49,0,0,1-4.22-7,13.07,13.07,0,0,1-.4-3.21h-14.46a30.89,30.89,0,0,0,4.82,13.33,30.83,30.83,0,0,0,2.3,3.14c.47.56,1,1.11,1.5,1.63.19.21.41.43.62.65a31.65,31.65,0,0,0,5,4,30,30,0,0,0,5.05,2.67,32.45,32.45,0,0,0,8.71,2.32Zm107.75,10.47a19.64,19.64,0,0,0-1.43-2,17.61,17.61,0,0,0-1.32-1.41,19.66,19.66,0,0,0-3.36-2.66,5.45,5.45,0,0,0-8.38,4.58v1.24a8.54,8.54,0,0,1,8.52,8.52h1.45A5.38,5.38,0,0,0,4161.05-230.31Zm2.61-26.62-8.75.1a8.54,8.54,0,0,1-8.43,8.6,6,6,0,0,0,6,6,5.74,5.74,0,0,0,3.53-1.23,19.29,19.29,0,0,0,2.17-2,20.16,20.16,0,0,0,5.44-11.21C4163.65-256.76,4163.65-256.85,4163.66-256.93Zm17.84,26.42v-1.25a5.46,5.46,0,0,0-8.38-4.59,20.48,20.48,0,0,0-3.34,2.65A19.51,19.51,0,0,0,4164-222h9A8.54,8.54,0,0,1,4181.5-230.51ZM4167-248.62a23,23,0,0,0,1.43,2c.43.48.87,1,1.34,1.42a21,21,0,0,0,3.34,2.65,5.46,5.46,0,0,0,8.38-4.61v-1.22a8.54,8.54,0,0,1-8.51-8.52h-1.46A5.39,5.39,0,0,0,4167-248.62Zm34.57,142c-.48-.74-1-1.45-1.52-2.13-.15-.21-.31-.41-.48-.61-.57-.69-1.19-1.33-1.83-2a28.27,28.27,0,0,0-4.66-3.68,7.58,7.58,0,0,0-11.64,6.37v1.71a11.82,11.82,0,0,1,10.19,5.87,11.67,11.67,0,0,1,1.63,6h2A7.48,7.48,0,0,0,4201.58-106.58Zm3.64-37-3.08,0-9.09.09a11.83,11.83,0,0,1-4.28,9.21,11.84,11.84,0,0,1-7.44,2.74,8.38,8.38,0,0,0,8.36,8.29,8,8,0,0,0,4.92-1.72c.38-.3.76-.61,1.12-.92.66-.56,1.28-1.16,1.89-1.78a27.89,27.89,0,0,0,6.78-12,25.13,25.13,0,0,0,.76-3.61C4205.19-143.35,4205.2-143.46,4205.22-143.59Zm24.77,35a7.57,7.57,0,0,0-11.64-6.38,27.65,27.65,0,0,0-4.66,3.68c-.51.5-1,1-1.47,1.57A26.85,26.85,0,0,0,4205.68-95h12.47A11.87,11.87,0,0,1,4230-106.88Zm0-23.15a11.88,11.88,0,0,1-11.84-11.84h-2a7.5,7.5,0,0,0-7.48,7.85,7.35,7.35,0,0,0,1.19,3.7,25.57,25.57,0,0,0,2,2.73c.58.68,1.19,1.33,1.83,2a26.87,26.87,0,0,0,2.42,2.09c.72.57,1.47,1.09,2.24,1.59A7.57,7.57,0,0,0,4230-130ZM4308.23-277c-1.86-2-3.8-3.85-5.68-5.66a369.3,369.3,0,0,0-54.09-44.09c-15-10-41.63-27.54-80.92-40.63a325.81,325.81,0,0,0-78.48-15.38c-55.81-4-102.84,7-135.08,18l-.66.21c7.37,28,20,40.22,29.71,46.31a37.9,37.9,0,0,0,7.31,3.67,47.46,47.46,0,0,0,11.71,2.85h.06c1.68.23,3.38.31,5.25.39,15.75.58,38.21-2.6,79.7-3.47l.41,0c1.27,0,2.61,0,3.88-.05l1,0c5.71-.12,10.74-.13,15.32-.08s8.86.06,12.76.15h.06l.09.06c4.63.07,8.93.26,13.3.4,2.22.08,4.52.13,6.86.13a1.89,1.89,0,0,0,.67,0c11.64.19,22.79.51,40.24,4.35a4.29,4.29,0,0,1,.88.25c13.05,2.87,29.66,7.72,52.49,15.9.94.38,1.84.67,2.79,1.05a18,18,0,0,1,1.84.69c16.37,5.73,37.49,11.06,61.62,18.24,2,.61,4.21,1.22,6.3,1.89C4307.74-273.45,4308-275.22,4308.23-277Zm-66.78-58.5.09.1v-.07C4241.49-335.43,4241.48-335.43,4241.45-335.46ZM4067.58-524.94c-.1-.1-.21-.21-.32-.3.27.3.56.59.84.87l.61.59C4068.34-524.18,4068-524.57,4067.58-524.94Zm-56.71,326.57a13.17,13.17,0,0,0-1.12-5.37A34.35,34.35,0,0,1,4010.87-198.37Zm14-.14-10.35.16h10.37C4024.84-198.4,4024.84-198.46,4024.83-198.51ZM5156.94-712.18c-16.92,37.4-41.64,77.35-74,100.59-55.73,39.82-96,89.3-132.95,145.1a274.29,274.29,0,0,1-77.69,76.74c-20.21,13.23-50.55,10.82-72.11,14.51-.06.4-.06.8-.14,1.14v.07c7.86,24,22.23,54.25,26.86,85.94,10.28,70.65-37.87,116-80.84,160.42-76.2,78.9-171.16,94.67-274.5,71.17-22.29-5-38.41-16.79-46.12-36.93l-.07-.2c-.41-2.15-.81-4.29-1.14-6.44-.06-.61-.2-1.21-.27-1.82-.4-2.08-.8-4.23-1.14-6.37-.41-2.43-.74-4.85-1.14-7.26-.34-1.94-.67-3.9-.95-5.91-.26-1.74-.53-3.49-.8-5.3s-.47-3.49-.74-5.17c-.26-2.29-.54-4.5-.87-6.72-.26-1.88-.48-3.68-.74-5.58a1.63,1.63,0,0,0-.07-.53c-.26-2.28-.54-4.57-.8-6.85s-.47-4.29-.67-6.44c-.08-.68-.2-1.48-.27-2.28-.14-1.08-.2-2.15-.34-3.3-.14-1.34-.26-2.81-.34-4.09s-.33-2.82-.39-4.16c-.08-.67-.14-1.35-.2-2-.14-2.07-.34-4.15-.48-6.31-.41-4.63-.73-9.33-1-14v-.14c-.13-2.29-.27-4.57-.33-6.85v-.21c-.14-2-.2-4.09-.34-6.11v-1.07q-.09-3.12-.2-6.25v-1c-.07-1.68-.13-3.44-.2-5.1,0-1.15,0-2.29-.07-3.44v-20.41a3.69,3.69,0,0,1,.07-.87v-.74c0-2.15.07-4.29.13-6.44v-.07c.07-2.15.14-4.3.27-6.44v-1.49c.07-1.81.14-3.75.28-5.57a12.21,12.21,0,0,0,.06-1.48c.06-1.67.2-3.42.33-5.1,0-.88.07-1.81.14-2.68a40,40,0,0,1,.34-4.17c0-.81.06-1.54.12-2.35.14-2.28.34-4.5.55-6.79s.4-4.82.67-7.18.46-4.69.74-7.12c.53-4.76,1.14-9.59,1.81-14.36.2-1.54.46-3.16.68-4.7.06-.54.12-1.07.19-1.61.2-1,.4-2.09.54-3.16.2-1.54.47-3.15.73-4.69s.54-3.1.81-4.71.61-3.08.87-4.7.54-3.09.88-4.63c.19-1.28.47-2.55.74-3.84.13-.73.26-1.46.46-2.27.28-1.35.54-2.69.89-4.1.06-.47.2-1,.26-1.54.33-1.21.61-2.42.87-3.62s.53-2.36.81-3.56c5.5-23.51,13.15-45.94,13.15-45.94,1.15-3.29,2.22-6.38,3.23-9.2.55-1.27.94-2.48,1.42-3.68s.93-2.43,1.34-3.56.87-2.22,1.27-3.23c1.14-3,2.08-5.3,2.75-6.92.27-.73.61-1.4.87-2.08,6.52-15.58,12.56-27.39,15.72-33.5,1.21-2.35,2.48-4.71,3.76-7,.54-1,1.07-2,1.61-2.83a14.88,14.88,0,0,1,.74-1.34c.26-.46.48-.94.8-1.47.09-.16.16-.34.25-.5.18-.35.38-.68.58-1l.25-.36c3.23-5.71,6.45-11,9.54-15.86.06-.1.13-.2.18-.3.19-.27.35-.53.55-.83.75-1.28,1.62-2.55,2.41-3.77,1.55-2.42,3.1-4.77,4.71-7.05.4-.61.81-1.2,1.21-1.74l.18-.3.82-1.18c2.16-3.15,4.17-6,6.05-8.53.13-.13.27-.33.4-.47.28-.4.54-.73.81-1.14.8-1.07,1.54-2.14,2.28-3.09,0,0,10.74-14.3,21.36-26.11.73-.81,1.4-1.62,2.14-2.36a4.32,4.32,0,0,1,.74-.74,123.52,123.52,0,0,1,22.43-19.41.7.7,0,0,0,.26-.19c.14-.07.2-.14.34-.14,1.14-.8,2.35-1.54,3.5-2.28a.73.73,0,0,1,.26-.2c1-.61,1.95-1.21,3-1.88s1.88-1.2,2.83-1.75l6.23-3.62q2.22-1.32,4.65-2.62c92.63-40.21,133.69-48.38,178.87-58.1l1.73-.37c1-.16,2-.31,3-.49,1.94-.27,4-.61,5.84-.87l5.91-.81c1.07-.13,2.14-.26,3.22-.47,2.36-.26,4.63-.53,7-.8,1.94-.27,4-.54,5.91-.74,1.2-.14,2.47-.34,3.68-.4,5.1-.61,10.28-1.07,15.31-1.62,2.29-.12,4.64-.4,7-.53,1.22-.14,2.36-.2,3.56-.34l8.07-.6c2.95-.27,5.9-.41,8.86-.61.47,0,1-.06,1.47-.06,2.62-.2,5.24-.34,7.79-.47.47,0,.87-.06,1.34-.06,2.75-.14,5.52-.28,8.19-.34a5.28,5.28,0,0,1,1.15-.08c2.82-.13,5.64-.19,8.39-.33l8.87-.2c.46,0,.93-.06,1.41-.06,2.82-.08,5.57-.14,8.39-.14s5.63-.06,8.46-.14h8.72a490.82,490.82,0,0,0,72.79-5.1c80.18-12,145.71-46.8,171.56-116.89,1.42-3.78,2.69-7.73,3.83-11.69a6.07,6.07,0,0,0,.14-1C5166.21-778.46,5173.86-749.52,5156.94-712.18ZM4796.34-481.7l.28,0a20.85,20.85,0,0,0,11.52-5.74,20,20,0,0,0,5.95-12.07h-9a8.77,8.77,0,0,1-8.75,8.75ZM4663.75-584.18a31,31,0,0,0,4.82,13.33,30.7,30.7,0,0,0,2.3,3.13c.68.8,1.38,1.55,2.12,2.28a32.38,32.38,0,0,0,18.81,9V-570.6a13.63,13.63,0,0,1-13.58-13.58Zm0,56h14.47a13.62,13.62,0,0,1,13.58-13.58v-14.19a32.26,32.26,0,0,0-18.81,9A31.23,31.23,0,0,0,4663.75-528.17Zm-28-28.32.42,0a32.47,32.47,0,0,0,13.12-5.05,33.31,33.31,0,0,0,4.75-3.85,31.71,31.71,0,0,0,6.34-8.76,30.7,30.7,0,0,0,2.91-10h-14c0,.3,0,.59,0,.89a13.64,13.64,0,0,1-11,12.44,13.87,13.87,0,0,1-2.59.25Zm0,14.74a12.8,12.8,0,0,1,2.57.25,13.63,13.63,0,0,1,11,12.43c0,.3,0,.6,0,.9h14a31,31,0,0,0-2.92-10,30.08,30.08,0,0,0-3.6-5.72,31.85,31.85,0,0,0-2.56-2.89,31.76,31.76,0,0,0-4.93-4,32.48,32.48,0,0,0-13.49-5.1h-.05Zm-85.28,88.25a19.77,19.77,0,0,0,3.11,8.59,21,21,0,0,0,1.47,2c.43.51.89,1,1.36,1.46a20.91,20.91,0,0,0,12.13,5.81v-9.14a8.77,8.77,0,0,1-8.75-8.75Zm0,36.1h9.32a8.77,8.77,0,0,1,8.75-8.75v-9.15a20.91,20.91,0,0,0-12.13,5.81A20.1,20.1,0,0,0,4550.51-417.4Zm-18-18.25.28,0a20.9,20.9,0,0,0,11.52-5.73,20.09,20.09,0,0,0,5.95-12.08h-9a8.77,8.77,0,0,1-8.75,8.75Zm0,9.5a8.77,8.77,0,0,1,8.75,8.75h9a20,20,0,0,0-4.2-10.12,18.34,18.34,0,0,0-1.66-1.87,20.83,20.83,0,0,0-11.86-5.86h0ZM4533.9-100a30.75,30.75,0,0,0-4.61-13,28.4,28.4,0,0,0-1.91-2.69,31.85,31.85,0,0,0-2.56-2.89,32.47,32.47,0,0,0-18.42-9.11h0v14.13a13.64,13.64,0,0,1,12.84,9.18,13.63,13.63,0,0,1,.74,4.4Zm-27.55-41.84v13.52l.42,0a32.45,32.45,0,0,0,11.51-4.06,31.8,31.8,0,0,0,6.36-4.84,32.17,32.17,0,0,0,4.82-6,30.59,30.59,0,0,0,4.43-12.72h-14a13.65,13.65,0,0,1-.5,3.63,13.71,13.71,0,0,1-7.78,8.86,13.42,13.42,0,0,1-5.07,1.09C4506.51-142.25,4506.42-142.06,4506.35-141.86Zm56,14.07a32.32,32.32,0,0,0-18.8,9l-.71.72a31.2,31.2,0,0,0-8.53,18h14.47a13.62,13.62,0,0,1,13.57-13.58Zm0-14.66A13.62,13.62,0,0,1,4548.78-156h-14.47a31,31,0,0,0,4.82,13.33,30.7,30.7,0,0,0,2.3,3.13c.67.8,1.38,1.55,2.12,2.28a32.32,32.32,0,0,0,18.8,9Zm23.12-85.37a21.37,21.37,0,0,0-1.43-2c-.41-.49-.86-1-1.32-1.42a20.11,20.11,0,0,0-3.36-2.65,5.45,5.45,0,0,0-8.38,4.58V-228a8.54,8.54,0,0,1,8.51,8.52H4581A5.39,5.39,0,0,0,4585.47-227.82Zm2.61-26.62-8.75.09a8.56,8.56,0,0,1-8.44,8.61,6,6,0,0,0,6,6,5.72,5.72,0,0,0,3.53-1.24,19.11,19.11,0,0,0,2.17-1.95,20.22,20.22,0,0,0,5.44-11.21C4588.07-254.27,4588.07-254.36,4588.08-254.44Zm17.84,25.17a5.46,5.46,0,0,0-8.38-4.59,20.56,20.56,0,0,0-3.35,2.65,19.55,19.55,0,0,0-5.77,11.7h9a8.54,8.54,0,0,1,8.52-8.51Zm0-16.65a8.55,8.55,0,0,1-8.52-8.52H4596a5.38,5.38,0,0,0-4.52,8.31,21,21,0,0,0,1.43,2c.42.48.87.95,1.33,1.41a20.62,20.62,0,0,0,3.35,2.66,5.46,5.46,0,0,0,8.38-4.61ZM4738-217.35a27,27,0,0,0-2-2.74,7.23,7.23,0,0,0-.53-.59c-.41-.47-.85-.93-1.3-1.38a28.78,28.78,0,0,0-4.67-3.68,7.53,7.53,0,0,0-7.55-.34,7.52,7.52,0,0,0-4.09,6.71v1.7a11.88,11.88,0,0,1,11.83,11.85h2A7.47,7.47,0,0,0,4738-217.35Zm3.65-37-12.18.13a11.79,11.79,0,0,1-4.58,9.44,11.75,11.75,0,0,1-7.14,2.51,8.38,8.38,0,0,0,8.36,8.28,8,8,0,0,0,4.92-1.71,25.36,25.36,0,0,0,2.15-1.86c.3-.27.59-.56.86-.84a28.13,28.13,0,0,0,7.54-15.59C4741.62-254.12,4741.63-254.23,4741.66-254.36Zm24.76,35a7.46,7.46,0,0,0-4-6.67,7.51,7.51,0,0,0-7.63.28,28.72,28.72,0,0,0-4.67,3.69,27.84,27.84,0,0,0-4.06,5,26.5,26.5,0,0,0-3.94,11.2h12.47a11.86,11.86,0,0,1,11.83-11.83Zm0-23.15a11.79,11.79,0,0,1-6.93-2.25,11.91,11.91,0,0,1-4.9-9.59h-2a7.49,7.49,0,0,0-6.28,11.55,26.93,26.93,0,0,0,2,2.73c.58.68,1.19,1.33,1.83,2a11.1,11.1,0,0,0,.88.81,28,28,0,0,0,3.79,2.88,7.57,7.57,0,0,0,11.63-6.39Zm20.68-135.2c-.2-.07-.48-.14-.68-.2-32.55-10-79.9-19.54-135.56-13.84a326.4,326.4,0,0,0-78,17.79c-38.87,14.3-65,32.7-79.63,43.12a368.35,368.35,0,0,0-52.71,45.73c-1.82,1.87-3.7,3.82-5.51,5.83.27,1.75.6,3.5.88,5.17,2.07-.74,4.23-1.41,6.23-2.08,23.91-7.93,44.86-13.9,61-20.14a18.86,18.86,0,0,1,1.82-.75c.93-.39,1.81-.73,2.75-1.13,22.56-8.87,39-14.24,52-17.52a6.14,6.14,0,0,1,.87-.28c17.33-4.37,28.47-5,40.09-5.57a2.54,2.54,0,0,0,.67-.06c2.34-.08,4.63-.2,6.85-.34,4.37-.27,8.66-.61,13.29-.81l.08-.06h.06c3.89-.21,8.05-.41,12.76-.55s9.59-.34,15.3-.4h.95c1.27,0,2.61-.06,3.88-.06h.41c41.5-.41,64.05,2.08,79.77,1,1.88-.14,3.56-.28,5.24-.55h.06a48,48,0,0,0,11.62-3.21,37.64,37.64,0,0,0,7.19-3.9C4768.36-336.9,4780.59-349.52,4787.1-377.72Zm27-85.73a20,20,0,0,0-4.2-10.12,17.33,17.33,0,0,0-1.66-1.87,20.83,20.83,0,0,0-11.86-5.86h0v9.11a8.77,8.77,0,0,1,8.75,8.75Zm18.34-17.9a20.86,20.86,0,0,0-12.12,5.81,20,20,0,0,0-5.95,12.09h9.32a8.77,8.77,0,0,1,8.75-8.75Zm0-9.45a8.77,8.77,0,0,1-8.75-8.75h-9.32a19.77,19.77,0,0,0,3.11,8.59,21,21,0,0,0,1.47,2,18.78,18.78,0,0,0,1.37,1.45,20.87,20.87,0,0,0,12.12,5.82ZM4917.56-647a11.19,11.19,0,0,1,1.62.14,12.55,12.55,0,0,1,7.12,3.48c.33.34.67.75,1,1.09a12,12,0,0,1,2.63,7.44,11.88,11.88,0,0,1,3.62-8.59,12.91,12.91,0,0,1,8.86-3.56,12.6,12.6,0,0,1-8.86-3.56,5.52,5.52,0,0,1-.8-.93c-.33-.34-.61-.75-.94-1.15a11.9,11.9,0,0,1-1.88-6.51,11.89,11.89,0,0,1-3.7,8.59,12.41,12.41,0,0,1-6.91,3.42A12,12,0,0,1,4917.56-647Zm80.71,49.89A44.54,44.54,0,0,1,4967-609.79a41.54,41.54,0,0,1-2.88-3.08,46.26,46.26,0,0,1-3.15-4.3,41.81,41.81,0,0,1-6.92-23,42.22,42.22,0,0,1-13,30.41,44.41,44.41,0,0,1-24.51,12.09,44,44,0,0,1-6,.47v.07a36.71,36.71,0,0,1,5.57.41,44.55,44.55,0,0,1,25.24,12.34c1.22,1.28,2.35,2.55,3.5,4a42,42,0,0,1,9.2,26.25A42.18,42.18,0,0,1,4967-584.53,44.24,44.24,0,0,1,4998.27-597.16Zm31.43-33.3a23.5,23.5,0,0,1-16.32-6.52c-.47-.54-1-1.07-1.48-1.68a13.41,13.41,0,0,1-1.61-2.22,21.73,21.73,0,0,1-3.63-12A22.51,22.51,0,0,1,5000-637a23.31,23.31,0,0,1-12.83,6.31,23.81,23.81,0,0,1-3.15.21v.06a21.82,21.82,0,0,1,2.89.2,22.94,22.94,0,0,1,13.15,6.45,12.87,12.87,0,0,1,1.82,2.08,21.89,21.89,0,0,1,4.83,13.7,22,22,0,0,1,6.72-15.84A23.3,23.3,0,0,1,5029.7-630.46ZM4499.91-339.71c.05-.05.06-.08.09-.1s0,0-.09,0Zm6.44,197.26v.59c.07-.2.16-.39.23-.59Zm628.1-658c-129.26-27.13-344.4-4.91-505.21,85.95-37.4,21.09-71.79,45.85-101.52,74.53-27.22,23.7-45.66,45.68-55,65.9-.15.29-.27.56-.4.85a342.77,342.77,0,0,0-27.69,51.9,341.56,341.56,0,0,0-13.29,37.6c-1.08-.4-2.22-.87-3.23-1.28.68,1.75,1.41,3.42,2.15,5.18-2.34,8.19-4.63,16.45-7.11,24.64-2,6.45-3.83,13-5.58,19.6-1.81-2.21-3.63-4.49-5.44-6.78,1,5.58,1.94,11.08,3,16.52a583.57,583.57,0,0,0-12.75,71.91q-1.91,23-3.56,45.8c-.2,5-.34,10-.46,15.1v2.29a675.18,675.18,0,0,0,2.53,70c-8.86,36.2-16.24,66.4-23.69,96.62l-.44,0c-1.8.16-3.61.31-5.4.45l-.45,0c-8.37-30-16.69-59.95-26.66-95.84a676.53,676.53,0,0,0,.38-70.09l-.08-2.29c-.29-5.09-.57-10.05-.92-15.07-1.56-15.21-3.24-30.4-5-45.68a583.86,583.86,0,0,0-15-71.47c.84-5.47,1.6-11,2.44-16.61-1.73,2.35-3.49,4.68-5.23,6.95-1.94-6.59-4-13-6.17-19.42-2.74-8.11-5.28-16.3-7.87-24.41.67-1.78,1.36-3.47,2-5.25-1,.45-2.12,1-3.19,1.38a337.92,337.92,0,0,0-14.45-37.16,343.3,343.3,0,0,0-29.27-51c-.14-.28-.27-.56-.44-.83-9.93-19.93-29-41.34-57-64.18-30.61-27.75-65.75-51.44-103.78-71.36-163.53-85.84-379.26-101.41-507.62-70.31,11.15-6.72,25.16-11.73,41.53-14.58,151.55-26.78,296.26-.28,433.47,61.5,83,37.28,160.85,85.94,245.76,133.82A40.17,40.17,0,0,0,4329.72-610c.77-1.1,1.22-2,1.47-2.4,5.66-10.53,4.79-20.84,4.33-24.86-2.21-21.83-19.8-36.74-40.14-55.58-24.62-22.77-54.95-39.22-82.75-58.59a10,10,0,0,1,1.34,0c27.83-1.26,45.19,6.07,55.9,13.12,30.44,20,37.56,57,67.83,67.18a83,83,0,0,0,24.92,3.79c.18,0,1.08-.05,2.5-.16V-668c2,.13,3.3.14,3.52.14a82.38,82.38,0,0,0,24.78-4.57c29.95-11.07,35.92-48.28,65.73-69.22,10.48-7.4,27.61-15.25,55.46-14.85a10.14,10.14,0,0,1,1.35,0c-27.2,20.21-57,37.6-80.91,61.11-19.75,19.47-36.86,34.91-38.4,56.8-.34,4-.89,14.37,5.1,24.71a25.41,25.41,0,0,0,1.54,2.35,40.23,40.23,0,0,0,16.32,14C4503-648,4579.34-699,4661.13-738.84c135.23-66,279.06-97,431.35-74.86C5108.93-811.35,5123.1-806.78,5134.45-800.41ZM1072.4,1940H703.9c0-310.33-251.57-561.9-561.9-561.9V1009.6C620.07,1084.33,997.67,1461.93,1072.4,1940ZM703.9,52h368.5c-37.31,239-150.48,453-313.88,616.52S381,945.09,142,982.4V613.9C452.33,613.9,703.9,362.33,703.9,52ZM2030,613.9V982.4c-239-37.31-453-150.48-616.52-313.88S1136.91,291,1099.6,52h368.5C1468.1,362.33,1719.67,613.9,2030,613.9Zm-616.52,709.58C1577,1160.08,1791,1046.91,2030,1009.6v368.5c-310.33,0-561.9,251.57-561.9,561.9H1099.6C1136.91,1701,1250.08,1487,1413.48,1323.48Z"/></svg>