<svg xmlns="http://www.w3.org/2000/svg" xmlns:xlink="http://www.w3.org/1999/xlink" version="1.1" x="0px" y="0px" viewBox="0 0 100 125" style="enable-background:new 0 0 100 100;" xml:space="preserve"><path fill="#fff" d="M89.36,71.228l0.001-57.241c0-1.849-1.499-3.347-3.347-3.347l-57.242,0c-0.888,0-1.739,0.353-2.367,0.98L26.1,11.925  c-2.109,2.109-0.615,5.714,2.367,5.714h48.946L11.512,83.539c-1.307,1.307-1.307,3.426,0,4.734l0.216,0.216  c1.307,1.307,3.426,1.307,4.734,0l65.901-65.901l-0.001,48.945c0,2.982,3.605,4.475,5.714,2.367l0.305-0.305  C89.007,72.967,89.36,72.116,89.36,71.228z"/></svg>