<svg xmlns="http://www.w3.org/2000/svg" version="1.1" viewBox="-5.0 -10.0 110.0 135.0">
 <path fill=' #fff' d="m33.781 62.5h45.906c0.72656 0 1.3594-0.50781 1.5234-1.2188l7.8125-34.375c0.10156-0.46094-0.007813-0.95312-0.30469-1.3203-0.29688-0.36719-0.74219-0.58594-1.2188-0.58594h-61.203l-2.8984-12.844c-0.15625-0.71094-0.79688-1.2188-1.5234-1.2188h-9.375c-0.85938 0-1.5625 0.70312-1.5625 1.5625s0.70312 1.5625 1.5625 1.5625h8.125l2.8125 12.469v0.03125c0 0.25 0.0625 0.47656 0.16406 0.6875l7.5625 33.484-3.875 7.75c-0.70312 1.4062-0.63281 3.0391 0.19531 4.3828s2.2656 2.1328 3.8359 2.1328h1.8984c-1.2266 1.4844-1.9688 3.3906-1.9688 5.4688 0 4.7422 3.8516 8.5938 8.5938 8.5938s8.5938-3.8516 8.5938-8.5938c0-2.0781-0.74219-3.9844-1.9688-5.4688h18c-1.2266 1.4844-1.9688 3.3906-1.9688 5.4688 0 4.7422 3.8516 8.5938 8.5938 8.5938s8.5938-3.8516 8.5938-8.5938c0-2.0781-0.74219-3.9844-1.9688-5.4688h1.9688c0.85938 0 1.5625-0.70312 1.5625-1.5625s-0.70312-1.5625-1.5625-1.5625h-48.367c-0.69531 0-1.0547-0.45312-1.1719-0.65625-0.125-0.19531-0.36719-0.71875-0.0625-1.3359zm-6.7734-34.375h58.539l-7.1016 31.25h-44.383zm18.305 52.344c0 3.0156-2.4531 5.4688-5.4688 5.4688s-5.4688-2.4531-5.4688-5.4688 2.4531-5.4688 5.4688-5.4688 5.4688 2.4531 5.4688 5.4688zm31.25 0c0 3.0156-2.4531 5.4688-5.4688 5.4688s-5.4688-2.4531-5.4688-5.4688 2.4531-5.4688 5.4688-5.4688 5.4688 2.4531 5.4688 5.4688z"/></svg>