<svg width="17" height="14" viewBox="0 0 17 14" fill="none" xmlns="http://www.w3.org/2000/svg">
<path d="M7.37223 3.35895H15.9906M7.37223 3.35895C7.37223 4.78688 6.21465 5.94445 4.78672 5.94445C3.35879 5.94445 2.20121 4.78688 2.20121 3.35895M7.37223 3.35895C7.37223 1.93101 6.21465 0.773438 4.78672 0.773438C3.35879 0.773438 2.20121 1.93101 2.20121 3.35895M2.20121 3.35895H0.477539M9.0959 10.2536H0.477539M9.0959 10.2536C9.0959 8.82566 10.2534 7.66812 11.6814 7.66812C13.1094 7.66812 14.2669 8.82566 14.2669 10.2536M9.0959 10.2536C9.0959 11.6816 10.2534 12.8391 11.6814 12.8391C13.1094 12.8391 14.2669 11.6816 14.2669 10.2536M14.2669 10.2536H15.9906" stroke="#F8F8FF" stroke-width="0.7" stroke-linecap="round" stroke-linejoin="round"/>
</svg>
