<svg xmlns="http://www.w3.org/2000/svg" version="1.1" viewBox="-5.0 -10.0 110.0 135.0">
<path fill="#fff"  d="m76.039 73.914-13.23-13.23c3.582-4.0859 5.5586-9.2578 5.5586-14.742 0-5.9883-2.332-11.621-6.5703-15.855-8.7422-8.7422-22.969-8.7422-31.711 0-4.2344 4.2344-6.5703 9.8672-6.5703 15.855 0 5.9883 2.332 11.621 6.5703 15.855 4.3711 4.3711 10.113 6.5586 15.855 6.5586 5.2734 0 10.531-1.8672 14.742-5.5508l13.234 13.234c0.29297 0.29297 0.67578 0.4375 1.0625 0.4375 0.38281 0 0.76562-0.14844 1.0625-0.4375 0.58203-0.58984 0.58203-1.5391-0.003907-2.125zm-43.828-14.238c-3.668-3.668-5.6875-8.5469-5.6875-13.734s2.0195-10.066 5.6875-13.734c3.7891-3.7852 8.7617-5.6797 13.734-5.6797 4.9766 0 9.9492 1.8945 13.734 5.6797 3.668 3.668 5.6875 8.5469 5.6875 13.734s-2.0195 10.066-5.6875 13.734c-7.5742 7.5742-19.895 7.5742-27.469 0z"/></svg>